<svg width="43" height="24" viewBox="0 0 43 24" fill="none" xmlns="http://www.w3.org/2000/svg">
<path d="M0.761364 24V0.727272H10.375C12.1174 0.727272 13.6212 1.04167 14.8864 1.67045C16.1591 2.29167 17.1402 3.18561 17.8295 4.35227C18.5189 5.51136 18.8636 6.88636 18.8636 8.47727C18.8636 10.0909 18.5114 11.4621 17.8068 12.5909C17.1023 13.7121 16.1023 14.5682 14.8068 15.1591C13.5114 15.7424 11.9773 16.0341 10.2045 16.0341H4.125V11.6023H9.15909C10.0076 11.6023 10.7159 11.4924 11.2841 11.2727C11.8598 11.0455 12.2955 10.7045 12.5909 10.25C12.8864 9.78788 13.0341 9.19697 13.0341 8.47727C13.0341 7.75757 12.8864 7.16288 12.5909 6.69318C12.2955 6.21591 11.8598 5.85985 11.2841 5.625C10.7083 5.38258 10 5.26136 9.15909 5.26136H6.38636V24H0.761364ZM13.8636 13.3636L19.6591 24H13.5227L7.84091 13.3636H13.8636ZM21.9489 24V0.727272H27.5739V10.0682H36.7443V0.727272H42.358V24H36.7443V14.6477H27.5739V24H21.9489Z" fill="#10A7BE"/>
</svg>
